HIERARCHY
ROOT Hips
{
	OFFSET 0.000000 71.427986 0.000000
	CHANNELS 6 Xposition Yposition Zposition Xrotation Yrotation Zrotation
	JOINT Pelvis
	{
		OFFSET 0.000000 0.000000 0.000000
		CHANNELS 3 Xrotation Yrotation Zrotation
		JOINT LeftUpLeg
		{
			OFFSET 6.797100 -2.508499 -1.318700
			CHANNELS 3 Xrotation Yrotation Zrotation
			JOINT LeftLeg
			{
				OFFSET 0.069008 -29.241863 0.690200
				CHANNELS 3 Xrotation Yrotation Zrotation
				JOINT LeftFoot
				{
					OFFSET -0.069008 -29.568123 -0.266800
					CHANNELS 3 Xrotation Yrotation Zrotation
					JOINT LeftToeBase
					{
						OFFSET 3.145500 -8.631000 16.059900
						CHANNELS 3 Xrotation Yrotation Zrotation
						End Site
						{
							OFFSET 0.000000 18.501587 0.000000
						}
					}
				}
			}
			JOINT Left_ShortSleeve
			{
				OFFSET 0.265923 -10.480953 1.153800
				CHANNELS 3 Xrotation Yrotation Zrotation
				End Site
				{
					OFFSET 1.725763 19.823879 0.000000
				}
			}
		}
		JOINT RightUpLeg
		{
			OFFSET -6.797100 -2.508499 -1.318700
			CHANNELS 3 Xrotation Yrotation Zrotation
			JOINT RightLeg
			{
				OFFSET -0.082453 -29.241932 0.688000
				CHANNELS 3 Xrotation Yrotation Zrotation
				JOINT RightFoot
				{
					OFFSET 0.082453 -29.568058 -0.264600
					CHANNELS 3 Xrotation Yrotation Zrotation
					JOINT RightToeBase
					{
						OFFSET -3.115300 -8.682800 16.113400
						CHANNELS 3 Xrotation Yrotation Zrotation
						End Site
						{
							OFFSET 0.000000 18.567114 0.000000
						}
					}
				}
			}
			JOINT Right_ShortSleeve
			{
				OFFSET -0.265923 -10.480953 1.153800
				CHANNELS 3 Xrotation Yrotation Zrotation
				End Site
				{
					OFFSET -1.725766 19.823910 0.000000
				}
			}
		}
	}
	JOINT Spine
	{
		OFFSET 0.000000 13.368103 0.470500
		CHANNELS 3 Xrotation Yrotation Zrotation
		JOINT Spine1
		{
			OFFSET 0.147000 13.837402 0.538800
			CHANNELS 3 Xrotation Yrotation Zrotation
			JOINT Spine2
			{
				OFFSET 0.168000 16.242897 -1.435500
				CHANNELS 3 Xrotation Yrotation Zrotation
				JOINT Neck
				{
					OFFSET 0.217200 18.631500 -1.679100
					CHANNELS 3 Xrotation Yrotation Zrotation
					JOINT Head
					{
						OFFSET 0.000000 6.599396 1.385900
						CHANNELS 3 Xrotation Yrotation Zrotation
						JOINT Hat
						{
							OFFSET -0.532200 27.220596 -10.096100
							CHANNELS 3 Xrotation Yrotation Zrotation
							End Site
							{
								OFFSET 0.000000 22.029861 0.000000
							}
						}
						JOINT HairD
						{
							OFFSET -10.777400 17.437393 -1.325900
							CHANNELS 3 Xrotation Yrotation Zrotation
							JOINT HairD1
							{
								OFFSET -3.290299 -11.051193 1.062200
								CHANNELS 3 Xrotation Yrotation Zrotation
								End Site
								{
									OFFSET 0.000000 11.579437 0.000000
								}
							}
						}
						JOINT HairB
						{
							OFFSET -10.777400 17.437393 1.467900
							CHANNELS 3 Xrotation Yrotation Zrotation
							JOINT HairB1
							{
								OFFSET -1.561200 -12.956299 3.590200
								CHANNELS 3 Xrotation Yrotation Zrotation
								End Site
								{
									OFFSET 0.000000 13.534866 0.000000
								}
							}
						}
						JOINT HairA
						{
							OFFSET 9.713100 17.437393 1.467900
							CHANNELS 3 Xrotation Yrotation Zrotation
							JOINT HairA1
							{
								OFFSET 1.561200 -12.956299 3.590200
								CHANNELS 3 Xrotation Yrotation Zrotation
								End Site
								{
									OFFSET 0.000000 13.534866 0.000000
								}
							}
						}
						JOINT HairC
						{
							OFFSET 9.713100 17.437393 -1.325900
							CHANNELS 3 Xrotation Yrotation Zrotation
							JOINT HairC1
							{
								OFFSET 3.290300 -11.051193 1.062200
								CHANNELS 3 Xrotation Yrotation Zrotation
								End Site
								{
									OFFSET 0.000000 11.579437 0.000000
								}
							}
						}
					}
				}
				JOINT LeftShoulder
				{
					OFFSET 5.101800 15.108002 -2.763700
					CHANNELS 3 Xrotation Yrotation Zrotation
					JOINT LeftArm
					{
						OFFSET 9.825497 2.506317 -1.597400
						CHANNELS 3 Xrotation Yrotation Zrotation
						JOINT LeftForeArm
						{
							OFFSET 21.966244 0.000000 0.000000
							CHANNELS 3 Xrotation Yrotation Zrotation
							JOINT LeftHand
							{
								OFFSET 33.879036 0.000000 0.000000
								CHANNELS 3 Xrotation Yrotation Zrotation
								JOINT LeftHandThumb1
								{
									OFFSET 6.715286 -2.359680 3.363841
									CHANNELS 3 Xrotation Yrotation Zrotation
									JOINT LeftHandThumb2
									{
										OFFSET 2.507072 -1.447464 1.447461
										CHANNELS 3 Xrotation Yrotation Zrotation
										JOINT LeftHandThumb3
										{
											OFFSET 2.898338 -1.673355 1.673357
											CHANNELS 3 Xrotation Yrotation Zrotation
											End Site
											{
												OFFSET -0.295959 3.727692 -0.131651
											}
										}
									}
								}
								JOINT LeftHandIndex1
								{
									OFFSET 14.190811 -0.254547 3.840278
									CHANNELS 3 Xrotation Yrotation Zrotation
									JOINT LeftHandIndex2
									{
										OFFSET 3.551727 0.000000 -0.000000
										CHANNELS 3 Xrotation Yrotation Zrotation
										JOINT LeftHandIndex3
										{
											OFFSET 2.894196 0.000000 0.000000
											CHANNELS 3 Xrotation Yrotation Zrotation
											End Site
											{
												OFFSET -1.000603 2.690872 0.366626
											}
										}
									}
								}
								JOINT LeftHandMiddle1
								{
									OFFSET 13.776489 0.000000 0.000000
									CHANNELS 3 Xrotation Yrotation Zrotation
									JOINT LeftHandMiddle2
									{
										OFFSET 3.438232 0.000000 0.000000
										CHANNELS 3 Xrotation Yrotation Zrotation
										JOINT LeftHandMiddle3
										{
											OFFSET 3.691551 0.000000 0.000000
											CHANNELS 3 Xrotation Yrotation Zrotation
											End Site
											{
												OFFSET -1.082298 3.499527 0.457670
											}
										}
									}
								}
								JOINT LeftHandRing1
								{
									OFFSET 13.966164 -0.268127 -3.067488
									CHANNELS 3 Xrotation Yrotation Zrotation
									JOINT LeftHandRing2
									{
										OFFSET 3.162567 0.000000 0.000000
										CHANNELS 3 Xrotation Yrotation Zrotation
										JOINT LeftHandRing3
										{
											OFFSET 3.324348 0.000000 0.000000
											CHANNELS 3 Xrotation Yrotation Zrotation
											End Site
											{
												OFFSET -0.861900 3.184998 0.405154
											}
										}
									}
								}
								JOINT LeftHandPinky1
								{
									OFFSET 13.131393 -0.168503 -5.746925
									CHANNELS 3 Xrotation Yrotation Zrotation
									JOINT LeftHandPinky2
									{
										OFFSET 2.849182 0.000000 0.000000
										CHANNELS 3 Xrotation Yrotation Zrotation
										JOINT LeftHandPinky3
										{
											OFFSET 2.805038 0.000000 0.000000
											CHANNELS 3 Xrotation Yrotation Zrotation
											End Site
											{
												OFFSET -0.882500 2.642609 0.325652
											}
										}
									}
								}
							}
							JOINT Left_Sleeve
							{
								OFFSET 6.592125 -0.646545 0.805568
								CHANNELS 3 Xrotation Yrotation Zrotation
								End Site
								{
									OFFSET -0.000179 20.275787 -0.000000
								}
							}
						}
					}
				}
				JOINT RightShoulder
				{
					OFFSET -5.731700 15.108002 -2.763700
					CHANNELS 3 Xrotation Yrotation Zrotation
					JOINT RightArm
					{
						OFFSET -9.825497 2.506317 -1.597400
						CHANNELS 3 Xrotation Yrotation Zrotation
						JOINT RightForeArm
						{
							OFFSET -21.966242 0.000000 0.000000
							CHANNELS 3 Xrotation Yrotation Zrotation
							JOINT RightHand
							{
								OFFSET -33.879032 0.000000 0.000000
								CHANNELS 3 Xrotation Yrotation Zrotation
								JOINT RightHandThumb1
								{
									OFFSET -6.715286 -2.359680 3.363841
									CHANNELS 3 Xrotation Yrotation Zrotation
									JOINT RightHandThumb2
									{
										OFFSET -2.507072 -1.447464 1.447461
										CHANNELS 3 Xrotation Yrotation Zrotation
										JOINT RightHandThumb3
										{
											OFFSET -2.898338 -1.673355 1.673357
											CHANNELS 3 Xrotation Yrotation Zrotation
											End Site
											{
												OFFSET 0.295959 3.727692 -0.131651
											}
										}
									}
								}
								JOINT RightHandIndex1
								{
									OFFSET -14.190811 -0.254547 3.840278
									CHANNELS 3 Xrotation Yrotation Zrotation
									JOINT RightHandIndex2
									{
										OFFSET -3.551727 0.000000 -0.000000
										CHANNELS 3 Xrotation Yrotation Zrotation
										JOINT RightHandIndex3
										{
											OFFSET -2.894196 0.000000 0.000000
											CHANNELS 3 Xrotation Yrotation Zrotation
											End Site
											{
												OFFSET 1.000603 2.690872 0.366626
											}
										}
									}
								}
								JOINT RightHandMiddle1
								{
									OFFSET -13.776489 0.000000 0.000000
									CHANNELS 3 Xrotation Yrotation Zrotation
									JOINT RightHandMiddle2
									{
										OFFSET -3.438232 0.000000 0.000000
										CHANNELS 3 Xrotation Yrotation Zrotation
										JOINT RightHandMiddle3
										{
											OFFSET -3.691551 0.000000 0.000000
											CHANNELS 3 Xrotation Yrotation Zrotation
											End Site
											{
												OFFSET 1.082298 3.499527 0.457670
											}
										}
									}
								}
								JOINT RightHandRing1
								{
									OFFSET -13.966164 -0.268127 -3.067488
									CHANNELS 3 Xrotation Yrotation Zrotation
									JOINT RightHandRing2
									{
										OFFSET -3.162567 0.000000 0.000000
										CHANNELS 3 Xrotation Yrotation Zrotation
										JOINT RightHandRing3
										{
											OFFSET -3.324348 0.000000 0.000000
											CHANNELS 3 Xrotation Yrotation Zrotation
											End Site
											{
												OFFSET 0.861900 3.184998 0.405154
											}
										}
									}
								}
								JOINT RightHandPinky1
								{
									OFFSET -13.131393 -0.168503 -5.746925
									CHANNELS 3 Xrotation Yrotation Zrotation
									JOINT RightHandPinky2
									{
										OFFSET -2.849182 0.000000 0.000000
										CHANNELS 3 Xrotation Yrotation Zrotation
										JOINT RightHandPinky3
										{
											OFFSET -2.805038 0.000000 0.000000
											CHANNELS 3 Xrotation Yrotation Zrotation
											End Site
											{
												OFFSET 0.882500 2.642609 0.325652
											}
										}
									}
								}
							}
							JOINT Right_Sleeve
							{
								OFFSET -6.592125 -0.646545 0.805568
								CHANNELS 3 Xrotation Yrotation Zrotation
								End Site
								{
									OFFSET 0.000179 20.275787 -0.000000
								}
							}
						}
					}
				}
				JOINT Bind_Right_JacketString
				{
					OFFSET -3.534800 11.969597 7.200700
					CHANNELS 3 Xrotation Yrotation Zrotation
					JOINT Bind_Right_JacketString1
					{
						OFFSET -0.319900 -6.102600 2.794100
						CHANNELS 3 Xrotation Yrotation Zrotation
						End Site
						{
							OFFSET 0.000000 6.719452 0.000000
						}
					}
				}
				JOINT Bind_Left_JacketString
				{
					OFFSET 2.904800 11.969597 7.200700
					CHANNELS 3 Xrotation Yrotation Zrotation
					JOINT Bind_Left_JacketString1
					{
						OFFSET 0.364800 -5.904503 3.186800
						CHANNELS 3 Xrotation Yrotation Zrotation
						End Site
						{
							OFFSET 0.000000 6.719513 0.000000
						}
					}
				}
				JOINT HairE
				{
					OFFSET 5.915200 17.612701 -11.592200
					CHANNELS 3 Xrotation Yrotation Zrotation
					JOINT HairE1
					{
						OFFSET 0.289200 -7.171898 -1.284500
						CHANNELS 3 Xrotation Yrotation Zrotation
						End Site
						{
							OFFSET 0.000000 7.291756 0.000000
						}
					}
				}
				JOINT HairF
				{
					OFFSET -0.864800 17.612701 -11.592200
					CHANNELS 3 Xrotation Yrotation Zrotation
					JOINT HairF1
					{
						OFFSET 0.000000 -14.087097 -2.127501
						CHANNELS 3 Xrotation Yrotation Zrotation
						End Site
						{
							OFFSET 0.000000 14.246841 0.000000
						}
					}
				}
				JOINT HairG
				{
					OFFSET -8.087700 17.612701 -11.592200
					CHANNELS 3 Xrotation Yrotation Zrotation
					JOINT HairG1
					{
						OFFSET -0.293600 -6.081398 -0.910100
						CHANNELS 3 Xrotation Yrotation Zrotation
						End Site
						{
							OFFSET 0.000000 6.156120 0.000000
						}
					}
				}
			}
		}
	}
	JOINT Pouch
	{
		OFFSET 0.000000 4.394501 10.847300
		CHANNELS 3 Xrotation Yrotation Zrotation
		End Site
		{
			OFFSET 0.000000 21.880577 0.000000
		}
	}
	JOINT Bag
	{
		OFFSET -13.229000 4.813004 -0.593300
		CHANNELS 3 Xrotation Yrotation Zrotation
		End Site
		{
			OFFSET 0.000000 21.880577 0.000000
		}
	}
	JOINT OccupyGuyFacialAnim_Joint
	{
		OFFSET 1.000000 -70.206398 -1.655000
		CHANNELS 3 Xrotation Yrotation Zrotation
		End Site
		{
			OFFSET 0.000000 21.880577 0.000000
		}
	}
}
MOTION
Frames: 4
Frame Time: 0.016667
0.013325 64.567368 0.099778 9.541040 -61.607917 10.158456 0.000000 0.000000 -0.000000 -34.030011 13.171204 22.629323 36.647749 -7.053332 1.215255 -8.819454 -1.958378 -15.290910 -0.000000 -0.000002 0.000000 -0.000001 0.000001 -0.000000 -29.117749 -21.187800 -31.057116 35.642874 3.719439 -4.155586 -13.967452 0.512507 21.622074 -0.000000 -0.000000 0.000000 -0.000001 -0.000000 -0.000000 15.067107 -0.336243 -4.291809 5.872808 0.571261 -2.801485 5.868636 0.648865 -2.855438 -3.636314 1.441463 3.747634 -20.003654 54.833124 2.408466 0.000000 0.000000 -0.000001 0.000000 0.000000 -0.000001 0.000000 0.000000 -0.000001 0.000000 0.000000 -0.000001 0.000001 0.000000 -0.000001 0.000000 0.000000 -0.000001 0.000001 0.000000 -0.000001 0.000000 0.000000 -0.000001 0.000000 0.000000 -0.000001 1.829303 -3.192749 -12.271667 -39.386709 26.350112 -34.911996 0.430056 -46.810152 0.421454 -10.315195 -0.130079 0.363174 40.109907 -15.297138 -0.360499 5.639922 28.097795 11.338776 0.000000 -0.000001 -0.000000 6.882276 2.840047 -61.140500 8.247989 7.640017 -89.897878 0.000004 0.000002 0.000000 -2.345518 4.688877 -62.655217 8.754157 9.897062 -87.051225 0.000006 0.000000 0.000001 -9.042499 10.045600 -60.766192 8.523958 9.508876 -66.892953 -0.000002 0.000002 -0.000002 -17.946860 14.755012 -51.485898 8.868401 8.667039 -84.812091 -0.000000 -0.000001 -0.000001 0.000003 0.000003 -0.000003 0.631521 7.257353 8.703784 7.936902 -9.680958 53.430804 -22.866913 36.192189 17.964125 -27.375405 10.434889 -17.812413 -2.346141 -6.100519 10.731424 2.364046 -23.806276 -8.771108 -0.000000 0.000000 0.000002 -0.054767 0.532077 0.738705 0.019711 -0.087377 5.078575 0.000000 0.000001 0.000000 0.348261 -5.918489 2.583772 1.432620 -4.204237 24.052110 -0.000001 -0.000001 0.000001 1.205832 -11.756067 4.154746 1.794824 -3.771861 26.865432 -0.000001 0.000000 -0.000001 2.126219 -19.166846 11.319895 3.354805 -2.122220 18.828579 0.000000 0.000001 -0.000003 -0.000001 0.000002 0.000000 -0.000001 -0.000000 0.000000 -0.000000 0.000000 0.000001 -0.000001 -0.000000 -0.000000 -0.000001 -0.000000 -0.000000 -0.000001 -0.000000 0.000000 -0.000000 0.000000 0.000001 -0.000001 -0.000000 -0.000000 -0.000001 -0.000000 -0.000000 -0.000001 -0.000000 0.000000 -0.000000 0.000000 0.000001 0.000000 0.000000 -0.000000 0.000000 0.000000 -0.000000 0.000000 0.000000 -0.000000 
0.008387 64.580345 0.094235 8.506483 -61.894730 8.965995 0.000000 -0.000001 0.000000 -33.660241 13.194652 23.033734 36.835678 -6.478699 1.262357 -8.958590 -2.569918 -15.419912 0.000000 0.000000 0.000000 -0.000003 0.000003 0.000000 -28.655738 -21.594551 -30.968255 35.601565 5.483718 -4.004864 -13.896886 -0.638440 21.063390 0.000000 -0.000000 0.000000 0.000001 -0.000000 0.000002 14.988551 -0.331455 -4.274094 5.836665 0.551941 -2.747398 5.832892 0.628932 -2.797343 -3.515837 1.561326 3.707983 -19.681549 55.042234 2.670139 0.000000 0.000000 -0.000001 0.000000 0.000000 -0.000001 0.000000 0.000000 -0.000001 0.000000 0.000000 -0.000002 0.000000 -0.000000 -0.000001 0.000000 0.000000 -0.000002 0.000000 -0.000000 -0.000001 0.000000 0.000000 -0.000001 0.000000 0.000000 -0.000001 1.808127 -3.150475 -12.416793 -36.014713 24.816598 -34.515138 0.404983 -47.203311 0.405359 -13.147529 -0.038082 2.175003 40.109917 -15.297138 -0.360493 5.639919 28.097795 11.338779 -0.000000 0.000002 0.000001 6.882278 2.840044 -61.140500 8.247984 7.640014 -89.897878 -0.000001 0.000003 -0.000003 -2.345521 4.688875 -62.655224 8.754155 9.897064 -87.051225 -0.000001 0.000002 -0.000001 -9.042496 10.045603 -60.766185 8.523961 9.508882 -66.892953 0.000001 0.000001 -0.000002 -17.946853 14.755015 -51.485901 8.868403 8.667040 -84.812098 -0.000002 -0.000002 0.000001 -0.000001 -0.000002 0.000001 0.099908 6.784910 8.707330 8.453919 -9.716553 53.843826 -22.782596 36.391391 17.920984 -26.906755 10.541901 -17.555686 -2.229110 -5.644467 10.223982 2.393475 -23.029695 -8.550822 0.000000 0.000000 0.000002 -0.031252 0.157248 3.080517 0.067414 -0.504270 7.959861 -0.000000 -0.000004 0.000003 0.376512 -6.306651 4.884747 1.639315 -4.634051 27.021847 -0.000000 0.000001 -0.000001 1.537615 -11.799174 6.930007 2.077788 -4.286928 30.313322 0.000001 -0.000000 -0.000002 2.277223 -19.700282 14.604157 3.606963 -2.772441 22.891454 0.000001 0.000001 0.000001 0.000001 -0.000000 0.000001 -0.000002 0.000003 -0.000001 -0.000003 -0.000002 0.000001 -0.000002 0.000003 -0.000001 -0.000002 0.000003 -0.000001 -0.000002 0.000003 -0.000001 -0.000003 -0.000002 0.000001 -0.000002 0.000003 -0.000001 -0.000002 0.000003 -0.000001 -0.000002 0.000003 -0.000001 -0.000003 -0.000002 0.000001 0.000000 -0.000001 0.000000 0.000000 -0.000001 0.000000 0.000000 -0.000001 0.000000 
-0.009716 64.590973 0.089980 7.391002 -62.507064 7.667775 -0.000000 0.000000 0.000000 -33.254361 13.463434 23.701028 37.118615 -6.732854 1.243101 -9.180619 -2.381538 -15.397705 -0.000000 0.000000 -0.000000 0.000000 0.000000 -0.000002 -28.097554 -21.778352 -30.631063 35.426989 5.326460 -4.005558 -13.805619 0.082653 21.037058 -0.000000 -0.000000 -0.000000 0.000000 -0.000000 0.000000 14.765163 -0.308640 -4.211405 5.731453 0.497486 -2.601728 5.728706 0.572383 -2.640779 -3.172942 1.885434 3.613001 -19.015353 55.489973 2.614356 -0.000000 -0.000000 -0.000000 -0.000000 -0.000000 -0.000000 -0.000000 -0.000000 0.000000 -0.000000 -0.000000 -0.000001 -0.000000 -0.000000 0.000000 -0.000000 -0.000000 -0.000001 -0.000000 -0.000000 0.000000 -0.000000 -0.000000 -0.000000 -0.000000 -0.000000 -0.000000 1.753349 -3.032288 -12.822388 -32.213850 23.425693 -33.713513 0.377265 -47.042870 0.374143 -16.387656 -0.524140 3.915367 40.109910 -15.297138 -0.360502 5.639919 28.097797 11.338777 -0.000000 0.000001 0.000001 6.882278 2.840052 -61.140500 8.247983 7.640015 -89.897878 0.000003 0.000002 0.000002 -2.345516 4.688882 -62.655224 8.754149 9.897069 -87.051219 0.000004 0.000001 -0.000001 -9.042498 10.045607 -60.766192 8.523960 9.508883 -66.892953 0.000002 0.000004 -0.000002 -17.946858 14.755020 -51.485898 8.868401 8.667040 -84.812098 0.000000 0.000001 -0.000000 -0.000001 0.000004 -0.000004 -1.447332 6.161775 8.633108 9.394069 -10.760433 54.077087 -22.572455 37.039477 17.841294 -25.737437 10.731230 -17.031934 -2.096138 -5.152961 9.668800 2.419536 -22.184244 -8.315888 0.000000 -0.000000 0.000004 0.010642 -0.298159 5.838091 0.148000 -0.978298 11.261722 -0.000002 0.000004 0.000001 0.435397 -6.777995 7.554065 1.917830 -5.120877 30.524313 0.000000 -0.000001 -0.000003 1.924886 -11.837263 10.016855 2.453703 -4.859687 34.305687 -0.000000 -0.000001 -0.000002 2.496668 -20.238863 18.079688 3.985132 -3.472888 27.434969 -0.000000 -0.000000 -0.000001 0.000000 0.000001 -0.000001 -0.000002 0.000001 -0.000000 -0.000000 0.000000 -0.000001 -0.000002 0.000001 0.000001 -0.000002 0.000001 0.000001 -0.000002 0.000001 -0.000000 -0.000000 0.000000 -0.000001 -0.000002 0.000001 0.000001 -0.000002 0.000001 0.000001 -0.000002 0.000001 -0.000000 -0.000000 0.000000 -0.000001 -0.000000 0.000000 0.000000 -0.000000 0.000000 0.000000 -0.000000 0.000000 0.000000 
-0.036349 64.595474 0.081119 6.172580 -63.336699 6.248373 0.000000 -0.000002 0.000000 -32.836274 13.902970 24.534381 37.462051 -7.008284 1.222149 -9.464153 -2.174748 -15.383734 -0.000000 0.000000 0.000000 0.000000 0.000000 -0.000000 -27.481089 -21.762711 -30.205357 35.352024 6.137200 -3.936031 -13.710913 -0.096686 20.727882 0.000000 -0.000000 -0.000000 0.000002 0.000001 -0.000000 14.414991 -0.270268 -4.110341 5.567103 0.412675 -2.385935 5.566056 0.484804 -2.409093 -2.647250 2.365242 3.479152 -17.989689 56.103218 2.243569 -0.000000 0.000000 0.000001 -0.000000 0.000000 0.000001 -0.000000 0.000000 0.000001 -0.000000 0.000000 0.000000 -0.000000 0.000000 0.000000 -0.000000 0.000000 0.000000 -0.000000 0.000000 0.000000 -0.000000 0.000000 0.000001 -0.000000 0.000000 0.000001 1.672541 -2.851063 -13.443079 -28.045996 22.205744 -32.670478 0.347571 -46.527238 0.330374 -19.859490 -1.433914 5.545884 40.109907 -15.297136 -0.360499 5.639916 28.097797 11.338771 0.000000 -0.000000 0.000002 6.882281 2.840045 -61.140500 8.247982 7.640018 -89.897878 -0.000001 -0.000000 -0.000002 -2.345517 4.688876 -62.655217 8.754154 9.897062 -87.051225 0.000000 0.000002 -0.000001 -9.042493 10.045600 -60.766192 8.523968 9.508875 -66.892953 -0.000003 0.000002 -0.000002 -17.946857 14.755015 -51.485898 8.868402 8.667040 -84.812098 -0.000002 -0.000003 0.000001 -0.000001 0.000000 0.000002 -3.766292 5.416457 8.450675 10.628845 -12.718385 54.218202 -22.307118 38.229306 17.808335 -24.218148 10.776485 -16.612410 -1.948311 -4.635268 9.073843 2.440898 -21.283371 -8.070727 0.000000 0.000000 -0.000001 0.075703 -0.754064 8.595592 0.259697 -1.461728 14.669947 0.000000 0.000001 0.000001 0.518904 -7.250090 10.226000 2.241016 -5.604559 34.164562 0.000001 0.000000 0.000001 2.292866 -11.852336 12.949011 2.872651 -5.404295 38.305125 -0.000000 0.000001 -0.000004 2.696887 -20.720374 21.219518 4.399109 -4.103582 31.748184 -0.000000 0.000001 0.000001 0.000001 -0.000003 0.000000 -0.000000 -0.000002 0.000003 -0.000000 0.000001 -0.000001 -0.000000 -0.000002 0.000002 -0.000000 -0.000002 0.000002 -0.000000 -0.000002 0.000003 -0.000000 0.000001 -0.000000 -0.000000 -0.000002 0.000002 -0.000000 -0.000002 0.000002 -0.000000 -0.000002 0.000003 -0.000000 0.000001 -0.000000 0.000000 -0.000002 0.000000 0.000000 -0.000002 0.000000 0.000000 -0.000002 0.000000 
